REM DIRINDEX 1\2,1\3,1\4,1\5
REM DIRNAME cjc044,folder01,folder02,folder03,folder04
TITLE ""
FILE "1800_136.mp3" MP3
  TRACK 01 AUDIO
    TITLE "2:cjc044_4081"
    INDEX 01 00:00:00
  TRACK 02 AUDIO
    TITLE "0:"
    INDEX 01 00:01:13
  TRACK 03 AUDIO
    TITLE "3:cjc044_4082"
    INDEX 01 00:01:71
  TRACK 04 AUDIO
    TITLE "0:"
    INDEX 01 00:02:71
  TRACK 05 AUDIO
    TITLE "4:cjc044_4083"
    INDEX 01 00:03:59
  TRACK 06 AUDIO
    TITLE "0:"
    INDEX 01 00:04:74
  TRACK 07 AUDIO
    TITLE "5:cjc044_4084"
    INDEX 01 00:05:56
  TRACK 08 AUDIO
    TITLE "0:"
    INDEX 01 00:09:32
  TRACK 09 AUDIO
    TITLE "2:cjc044_4085"
    INDEX 01 00:11:11
  TRACK 10 AUDIO
    TITLE "0:"
    INDEX 01 00:12:38
  TRACK 11 AUDIO
    TITLE "3:cjc044_4086"
    INDEX 01 00:13:20
  TRACK 12 AUDIO
    TITLE "0:"
    INDEX 01 00:14:35
  TRACK 13 AUDIO
    TITLE "4:cjc044_4087"
    INDEX 01 00:15:17
  TRACK 14 AUDIO
    TITLE "0:"
    INDEX 01 00:16:44
  TRACK 15 AUDIO
    TITLE "5:cjc044_4088"
    INDEX 01 00:17:25
  TRACK 16 AUDIO
    TITLE "0:"
    INDEX 01 00:19:73
  TRACK 17 AUDIO
    TITLE "2:cjc044_4089"
    INDEX 01 00:21:57
  TRACK 18 AUDIO
    TITLE "0:"
    INDEX 01 00:22:56
  TRACK 19 AUDIO
    TITLE "3:cjc044_4090"
    INDEX 01 00:23:38
  TRACK 20 AUDIO
    TITLE "0:"
    INDEX 01 00:24:47
  TRACK 21 AUDIO
    TITLE "4:cjc044_4091"
    INDEX 01 00:25:33
  TRACK 22 AUDIO
    TITLE "0:"
    INDEX 01 00:26:32
  TRACK 23 AUDIO
    TITLE "5:cjc044_4092"
    INDEX 01 00:27:16
  TRACK 24 AUDIO
    TITLE "0:"
    INDEX 01 00:30:26
  TRACK 25 AUDIO
    TITLE "2:cjc044_4093"
    INDEX 01 00:32:13
  TRACK 26 AUDIO
    TITLE "0:"
    INDEX 01 00:33:38
  TRACK 27 AUDIO
    TITLE "3:cjc044_4094"
    INDEX 01 00:34:22
  TRACK 28 AUDIO
    TITLE "0:"
    INDEX 01 00:36:23
  TRACK 29 AUDIO
    TITLE "4:cjc044_4095"
    INDEX 01 00:37:08
  TRACK 30 AUDIO
    TITLE "0:"
    INDEX 01 00:38:35
  TRACK 31 AUDIO
    TITLE "5:cjc044_4096"
    INDEX 01 00:39:07
  TRACK 32 AUDIO
    TITLE "0:"
    INDEX 01 00:42:53
  TRACK 33 AUDIO
    TITLE "2:cjc044_4097"
    INDEX 01 00:44:38
  TRACK 34 AUDIO
    TITLE "0:"
    INDEX 01 00:45:43
  TRACK 35 AUDIO
    TITLE "3:cjc044_4098"
    INDEX 01 00:46:21
  TRACK 36 AUDIO
    TITLE "0:"
    INDEX 01 00:47:23
  TRACK 37 AUDIO
    TITLE "4:cjc044_4099"
    INDEX 01 00:48:00
  TRACK 38 AUDIO
    TITLE "0:"
    INDEX 01 00:49:04
  TRACK 39 AUDIO
    TITLE "5:cjc044_4100"
    INDEX 01 00:49:63
  TRACK 40 AUDIO
    TITLE "0:"
    INDEX 01 00:52:65
  TRACK 41 AUDIO
    TITLE "2:cjc044_4101"
    INDEX 01 00:54:48
  TRACK 42 AUDIO
    TITLE "0:"
    INDEX 01 00:55:65
  TRACK 43 AUDIO
    TITLE "3:cjc044_4102"
    INDEX 01 00:56:41
  TRACK 44 AUDIO
    TITLE "0:"
    INDEX 01 00:57:68
  TRACK 45 AUDIO
    TITLE "4:cjc044_4103"
    INDEX 01 00:58:50
  TRACK 46 AUDIO
    TITLE "0:"
    INDEX 01 00:59:71
  TRACK 47 AUDIO
    TITLE "5:cjc044_4104"
    INDEX 01 01:00:45
  TRACK 48 AUDIO
    TITLE "0:"
    INDEX 01 01:03:55
  TRACK 49 AUDIO
    TITLE "2:cjc044_4105"
    INDEX 01 01:05:46
  TRACK 50 AUDIO
    TITLE "0:"
    INDEX 01 01:06:73
  TRACK 51 AUDIO
    TITLE "3:cjc044_4106"
    INDEX 01 01:07:63
  TRACK 52 AUDIO
    TITLE "0:"
    INDEX 01 01:09:10
  TRACK 53 AUDIO
    TITLE "4:cjc044_4107"
    INDEX 01 01:09:69
  TRACK 54 AUDIO
    TITLE "0:"
    INDEX 01 01:11:23
  TRACK 55 AUDIO
    TITLE "5:cjc044_4108"
    INDEX 01 01:11:74
  TRACK 56 AUDIO
    TITLE "0:"
    INDEX 01 01:15:17
  TRACK 57 AUDIO
    TITLE "2:cjc044_4109"
    INDEX 01 01:17:02
  TRACK 58 AUDIO
    TITLE "0:"
    INDEX 01 01:18:25
  TRACK 59 AUDIO
    TITLE "3:cjc044_4110"
    INDEX 01 01:19:05
  TRACK 60 AUDIO
    TITLE "0:"
    INDEX 01 01:20:32
  TRACK 61 AUDIO
    TITLE "4:cjc044_4111"
    INDEX 01 01:21:04
  TRACK 62 AUDIO
    TITLE "0:"
    INDEX 01 01:22:29
  TRACK 63 AUDIO
    TITLE "5:cjc044_4112"
    INDEX 01 01:23:13
  TRACK 64 AUDIO
    TITLE "0:"
    INDEX 01 01:26:13
  TRACK 65 AUDIO
    TITLE "2:cjc044_4113"
    INDEX 01 01:28:02
  TRACK 66 AUDIO
    TITLE "0:"
    INDEX 01 01:29:35
  TRACK 67 AUDIO
    TITLE "3:cjc044_4114"
    INDEX 01 01:30:22
  TRACK 68 AUDIO
    TITLE "0:"
    INDEX 01 01:31:49
  TRACK 69 AUDIO
    TITLE "4:cjc044_4115"
    INDEX 01 01:32:33
  TRACK 70 AUDIO
    TITLE "0:"
    INDEX 01 01:33:68
  TRACK 71 AUDIO
    TITLE "5:cjc044_4116"
    INDEX 01 01:34:54
  TRACK 72 AUDIO
    TITLE "0:"
    INDEX 01 01:38:26
  TRACK 73 AUDIO
    TITLE "2:cjc044_4117"
    INDEX 01 01:40:03
  TRACK 74 AUDIO
    TITLE "0:"
    INDEX 01 01:41:20
  TRACK 75 AUDIO
    TITLE "3:cjc044_4118"
    INDEX 01 01:42:06
  TRACK 76 AUDIO
    TITLE "0:"
    INDEX 01 01:43:37
  TRACK 77 AUDIO
    TITLE "4:cjc044_4119"
    INDEX 01 01:44:13
  TRACK 78 AUDIO
    TITLE "0:"
    INDEX 01 01:45:32
  TRACK 79 AUDIO
    TITLE "5:cjc044_4120"
    INDEX 01 01:46:18
  TRACK 80 AUDIO
    TITLE "0:"
    INDEX 01 01:49:41
